<svg xmlns="http://www.w3.org/2000/svg" version="1.1" xmlns:xlink="http://www.w3.org/1999/xlink" xmlns:svgjs="http://svgjs.dev/svgjs" width="16.000057" height="16"><svg width="16.000057" height="16" viewBox="0 0 4.2333485 4.2333332" version="1.1" id="SvgjsSvg1031" inkscape:version="1.3 (0e150ed, 2023-07-21)" sodipodi:docname="helium-logo.svg" inkscape:export-filename="helium-logo-plain.svg" inkscape:export-xdpi="96" inkscape:export-ydpi="96" xmlns:inkscape="http://www.inkscape.org/namespaces/inkscape" xmlns:sodipodi="http://sodipodi.sourceforge.net/DTD/sodipodi-0.dtd" xmlns="http://www.w3.org/2000/svg" xmlns:svg="http://www.w3.org/2000/svg">
  <sodipodi:namedview id="SvgjsSodipodi:namedview1030" pagecolor="#ffffff" bordercolor="#111111" borderopacity="1" inkscape:showpageshadow="0" inkscape:pageopacity="0" inkscape:pagecheckerboard="1" inkscape:deskcolor="#d1d1d1" inkscape:document-units="mm" inkscape:zoom="6.4714861" inkscape:cx="36.313143" inkscape:cy="11.975611" inkscape:window-width="1392" inkscape:window-height="932" inkscape:window-x="128" inkscape:window-y="25" inkscape:window-maximized="0" inkscape:current-layer="layer1" showgrid="false"></sodipodi:namedview>
  <defs id="SvgjsDefs1029"></defs>
  <g inkscape:label="Layer 1" inkscape:groupmode="layer" id="SvgjsG1028">
    <rect style="fill:#f29909;fill-opacity:1;stroke-width:0;stroke-linecap:round;stroke-linejoin:round" id="SvgjsRect1027" width="4.2333331" height="4.2333331" x="0" y="0" rx="0.52916664" ry="0.52916664"></rect>
    <path id="SvgjsPath1026" style="fill:#f2b42d;fill-opacity:1;stroke-width:0;stroke-linecap:round;stroke-linejoin:round" d="M 0.52913438,0 C 0.23597633,0 0,0.23597633 0,0.52913438 V 2.5367003 L 4.2333486,1.8366569 V 0.52913438 C 4.2333486,0.23597633 3.9973722,0 3.7042141,0 Z"></path>
    <rect style="fill:#f3d235;fill-opacity:1;stroke-width:0;stroke-linecap:round;stroke-linejoin:round" id="SvgjsRect1025" width="3.7041669" height="3.7041669" x="0.26458332" y="0.26458332" rx="0.26458332" ry="0.26458332"></rect>
    <g id="SvgjsG1024" transform="scale(0.26458334)">
      <path sodipodi:type="spiral" style="fill:none;fill-rule:evenodd;stroke:#ffffff;stroke-width:1;stroke-linecap:round;stroke-dasharray:none;stroke-opacity:1" id="SvgjsPath1023" sodipodi:cx="6.0710349" sodipodi:cy="5.8397579" sodipodi:expansion="2" sodipodi:revolution="2" sodipodi:radius="3.7495544" sodipodi:argument="-17.247913" sodipodi:t0="0.5" d="M 6.0421246,6.7767006 C 5.3730206,6.9671664 4.7472578,6.4259641 4.607062,5.7945855 4.3861004,4.7994747 5.1895005,3.9021835 6.1360831,3.7316369 7.5206781,3.4821733 8.7413237,4.6026748 8.9404219,5.9282958 9.2164285,7.7659833 7.7238843,9.361742 5.9553936,9.5875286" transform="matrix(0.6903695,0.09656866,-0.09656866,0.6903695,7.5771541,2.0460202)"></path>
      <path style="fill:#f2b42d;fill-opacity:1;stroke:#ffffff;stroke-width:0.697;stroke-linecap:round;stroke-linejoin:round;stroke-dasharray:none;stroke-opacity:1" d="M 10.837276,9.2389829 2.1365262,9.2342239" id="SvgjsPath1022"></path>
    </g>
    <g id="SvgjsG1021" transform="matrix(0.18532514,0,0,-0.18532514,0.54253685,4.3868215)">
      <path sodipodi:type="spiral" style="fill:none;fill-rule:evenodd;stroke:#ffffff;stroke-width:1;stroke-linecap:round;stroke-dasharray:none;stroke-opacity:1" id="SvgjsPath1020" sodipodi:cx="6.0710349" sodipodi:cy="5.8397579" sodipodi:expansion="2" sodipodi:revolution="2" sodipodi:radius="3.7495544" sodipodi:argument="-17.247913" sodipodi:t0="0.5" d="M 6.0421246,6.7767006 C 5.3730206,6.9671664 4.7472578,6.4259641 4.607062,5.7945855 4.3861004,4.7994747 5.1895005,3.9021835 6.1360831,3.7316369 7.5206781,3.4821733 8.7413237,4.6026748 8.9404219,5.9282958 9.2164285,7.7659833 7.7238843,9.361742 5.9553936,9.5875286" transform="matrix(0.6903695,0.09656866,-0.09656866,0.6903695,7.5771541,2.0460202)"></path>
      <path style="fill:#f2b42d;fill-opacity:1;stroke:#ffffff;stroke-width:0.697;stroke-linecap:round;stroke-linejoin:round;stroke-dasharray:none;stroke-opacity:1" d="M 10.837276,9.2389829 2.1365262,9.2342239" id="SvgjsPath1019"></path>
    </g>
    <g id="SvgjsG1018" transform="matrix(0.11896945,0,0,0.11896945,0.53137434,1.1416843)">
      <path sodipodi:type="spiral" style="fill:none;fill-rule:evenodd;stroke:#ffffff;stroke-width:1;stroke-linecap:round;stroke-dasharray:none;stroke-opacity:1" id="SvgjsPath1017" sodipodi:cx="6.0710349" sodipodi:cy="5.8397579" sodipodi:expansion="2" sodipodi:revolution="2" sodipodi:radius="3.7495544" sodipodi:argument="-17.247913" sodipodi:t0="0.5" d="M 6.0421246,6.7767006 C 5.3730206,6.9671664 4.7472578,6.4259641 4.607062,5.7945855 4.3861004,4.7994747 5.1895005,3.9021835 6.1360831,3.7316369 7.5206781,3.4821733 8.7413237,4.6026748 8.9404219,5.9282958 9.2164285,7.7659833 7.7238843,9.361742 5.9553936,9.5875286" transform="matrix(0.6903695,0.09656866,-0.09656866,0.6903695,7.5771541,2.0460202)"></path>
      <path style="fill:#f2b42d;fill-opacity:1;stroke:#ffffff;stroke-width:0.697;stroke-linecap:round;stroke-linejoin:round;stroke-dasharray:none;stroke-opacity:1" d="M 10.837276,9.2389829 2.1365262,9.2342239" id="SvgjsPath1016"></path>
    </g>
  </g>
</svg><style>@media (prefers-color-scheme: light) { :root { filter: none; } }
@media (prefers-color-scheme: dark) { :root { filter: none; } }
</style></svg>