<?xml version="1.0" encoding="UTF-8" standalone="no"?>
<svg
   width="14.903608"
   height="16"
   viewBox="0 0 14.903608 16"
   fill="none"
   version="1.1"
   id="svg1"
   xmlns="http://www.w3.org/2000/svg"
   xmlns:svg="http://www.w3.org/2000/svg">
  <defs
     id="defs1" />
  <path
     fill-rule="evenodd"
     clip-rule="evenodd"
     d="M 5.723872,0.68377 C 5.859992,0.27543 6.242132,0 6.672562,0 h 1.55845 c 0.4305,0 0.8126,0.27543 0.9487,0.68377 l 0.594,1.78203 c 0.4695,0.1972 0.9085,0.45238 1.3083,0.75658 l 1.8419,-0.37691 c 0.4217,-0.0863 0.8513,0.10693 1.0665,0.47969 l 0.7792,1.34969 c 0.2152,0.37276 0.1678,0.84142 -0.1178,1.16347 l -1.2471,1.40636 c 0.0311,0.2474 0.0471,0.49949 0.0471,0.75532 0,0.2558 -0.016,0.5079 -0.0471,0.7553 l 1.2471,1.4064 c 0.2856,0.322 0.333,0.7907 0.1178,1.1635 l -0.7792,1.3496 c -0.2152,0.3728 -0.6448,0.566 -1.0665,0.4797 l -1.8419,-0.3769 c -0.3998,0.3042 -0.8388,0.5594 -1.3083,0.7566 l -0.594,1.782 C 9.043612,15.7246 8.661512,16 8.231012,16 h -1.55845 c -0.43043,0 -0.81257,-0.2754 -0.94869,-0.6838 l -0.59401,-1.782 c -0.46943,-0.1972 -0.9085,-0.4524 -1.30823,-0.7566 l -1.8419,0.3769 c -0.42169,0.0863 -0.85129,-0.1069 -1.06650997,-0.4797 l -0.77924,-1.3496 c -0.21521,-0.3728 -0.16775,-0.8415 0.11783,-1.1635 L 1.498892,8.7553 C 1.467812,8.5079 1.451802,8.2558 1.451802,8 c 0,-0.25584 0.01601,-0.50793 0.04708,-0.75534 L 0.25181203,5.83832 c -0.28558,-0.32205 -0.33304,-0.79071 -0.11783,-1.16347 l 0.77924,-1.34969 C 1.128442,2.9524 1.558042,2.75917 1.979732,2.84547 l 1.84188,0.37691 C 4.221352,2.91818 4.660422,2.663 5.129862,2.4658 Z M 7.451802,6 c -1.10457,0 -2,0.89543 -2,2 0,1.1046 0.89543,2 2,2 1.10461,0 2.00001,-0.8954 2.00001,-2 0,-1.10457 -0.8954,-2 -2.00001,-2 z"
     fill="white"
     id="path1"
     style="fill:#788da9;fill-opacity:1" />
</svg>
